#N canvas 0 38 1728 996 12;
#X declare -path cyclone;
#X obj 164 630 route 1 2 3 4 5 6 7 8 9 10 11 12 13 14 15 16, f 418;
#X obj 29 288 tgl 15 0 empty empty empty 17 7 0 10 #fcfcfc #000000 #000000 0 1;
#X obj 97 292 vsl 15 128 0 140 0 0 empty empty empty 0 -9 0 10 #fcfcfc #000000 #000000 0 1;
#X obj 164 287 tgl 15 0 empty empty empty 17 7 0 10 #fcfcfc #000000 #000000 0 1;
#X obj 217 287 bng 15 250 50 0 empty empty empty 17 7 0 10 #fcfcfc #000000 #000000;
#X obj 280 290 vsl 15 128 0 127 0 0 empty empty empty 0 -9 0 10 #fcfcfc #000000 #000000 0 1;
#X obj 323 287 tgl 15 0 empty empty empty 17 7 0 10 #fcfcfc #000000 #000000 0 1;
#X obj 370 290 vsl 15 128 0 10000 0 0 empty empty empty 0 -9 0 10 #fcfcfc #000000 #000000 0 1;
#X obj 412 290 vsl 15 128 0 10000 0 0 empty empty empty 0 -9 0 10 #fcfcfc #000000 #000000 0 1;
#X obj 451 291 vsl 15 128 2 6 0 0 empty empty empty 0 -9 0 10 #fcfcfc #000000 #000000 0 1;
#X obj 498 286 vradio 15 1 0 3 empty empty empty 0 -8 0 10 #fcfcfc #000000 #000000 0;
#X obj 542 286 tgl 15 0 empty empty empty 17 7 0 10 #fcfcfc #000000 #000000 0 1;
#X obj 565 286 tgl 15 0 empty empty empty 17 7 0 10 #fcfcfc #000000 #000000 0 1;
#X obj 590 286 tgl 15 0 empty empty empty 17 7 0 10 #fcfcfc #000000 #000000 0 1;
#X obj 616 286 tgl 15 0 empty empty empty 17 7 0 10 #fcfcfc #000000 #000000 0 1;
#X obj 644 286 tgl 15 0 empty empty empty 17 7 0 10 #fcfcfc #000000 #000000 0 1;
#X obj 668 286 tgl 15 0 empty empty empty 17 7 0 10 #fcfcfc #000000 #000000 0 1;
#X obj 693 285 tgl 15 0 empty empty empty 17 7 0 10 #fcfcfc #000000 #000000 0 1;
#X obj 718 285 tgl 15 0 empty empty empty 17 7 0 10 #fcfcfc #000000 #000000 0 1;
#X obj 743 285 tgl 15 0 empty empty empty 17 7 0 10 #fcfcfc #000000 #000000 0 1;
#X obj 766 285 tgl 15 0 empty empty empty 17 7 0 10 #fcfcfc #000000 #000000 0 1;
#X obj 791 285 tgl 15 0 empty empty empty 17 7 0 10 #fcfcfc #000000 #000000 0 1;
#X obj 817 285 tgl 15 0 empty empty empty 17 7 0 10 #fcfcfc #000000 #000000 0 1;
#X obj 845 285 tgl 15 0 empty empty empty 17 7 0 10 #fcfcfc #000000 #000000 0 1;
#X obj 869 285 tgl 15 0 empty empty empty 17 7 0 10 #fcfcfc #000000 #000000 0 1;
#X obj 894 284 tgl 15 0 empty empty empty 17 7 0 10 #fcfcfc #000000 #000000 0 1;
#X obj 919 284 tgl 15 0 empty empty empty 17 7 0 10 #fcfcfc #000000 #000000 0 1;
#X obj 29 469 sel 0 1;
#X obj 42 429 adc~;
#X obj 30 549 loadbang;
#X msg 30 575 amp-range 100 120;
#X obj 44 521 *~;
#X msg 29 493 1;
#X msg 61 493 0;
#X obj 126 443 + 20;
#X obj 165 443 sel 0 1;
#X msg 165 467 1;
#X msg 197 467 0;
#X obj 165 526 + 1;
#X msg 165 575 2;
#X text 13 310 freeze;
#X text 64 310 sensitivity;
#X text 149 310 median on/off;
#X text 171 325 clear median list;
#X text 274 261 vol;
#X text 314 261 arp on/off;
#X text 362 303 rand.;
#X text 404 302 ord.;
#X text 452 301 /;
#X text 460 260 rand. down up;
#X obj 9 6 declare -path cyclone;
#X obj 166 822 zl reg;
#X obj 166 715 t f b;
#X obj 166 795 delay 1;
#X obj 166 769 t b l;
#X obj 166 881 cycle~;
#X obj 166 913 *~ 1;
#X obj 166 948 *~ 0.005;
#X obj 166 979 *~ 1;
#X obj 166 1007 dac~;
#X obj 348 822 zl reg;
#X obj 348 715 t f b;
#X obj 348 795 delay 1;
#X obj 348 769 t b l;
#X obj 348 879 cycle~;
#X obj 348 913 *~ 1;
#X obj 530 821 zl reg;
#X obj 530 714 t f b;
#X obj 530 794 delay 1;
#X obj 530 768 t b l;
#X obj 530 878 cycle~;
#X obj 530 912 *~ 1;
#X obj 712 820 zl reg;
#X obj 712 741 zl group 2000;
#X obj 712 713 t f b;
#X obj 712 793 delay 1;
#X obj 712 767 t b l;
#X obj 712 877 cycle~;
#X obj 712 911 *~ 1;
#X obj 896 820 zl reg;
#X obj 896 741 zl group 2000;
#X obj 896 713 t f b;
#X obj 896 793 delay 1;
#X obj 896 767 t b l;
#X obj 896 877 cycle~;
#X obj 896 911 *~ 1;
#X obj 1078 820 zl reg;
#X obj 1078 741 zl group 2000;
#X obj 1078 713 t f b;
#X obj 1078 793 delay 1;
#X obj 1078 767 t b l;
#X obj 1078 877 cycle~;
#X obj 1078 911 *~ 1;
#X obj 1262 820 zl reg;
#X obj 1262 741 zl group 2000;
#X obj 1262 713 t f b;
#X obj 1262 793 delay 1;
#X obj 1262 767 t b l;
#X obj 1262 877 cycle~;
#X obj 1262 911 *~ 1;
#X obj 1445 821 zl reg;
#X obj 1445 742 zl group 2000;
#X obj 1445 714 t f b;
#X obj 1445 794 delay 1;
#X obj 1445 768 t b l;
#X obj 1445 878 cycle~;
#X obj 1445 912 *~ 1;
#X obj 1627 821 zl reg;
#X obj 1627 742 zl group 2000;
#X obj 1627 714 t f b;
#X obj 1627 794 delay 1;
#X obj 1627 768 t b l;
#X obj 1627 878 cycle~;
#X obj 1627 912 *~ 1;
#X obj 1809 821 zl reg;
#X obj 1809 742 zl group 2000;
#X obj 1809 714 t f b;
#X obj 1809 794 delay 1;
#X obj 1809 768 t b l;
#X obj 1809 878 cycle~;
#X obj 1809 912 *~ 1;
#X obj 1991 821 zl reg;
#X obj 1991 742 zl group 2000;
#X obj 1991 714 t f b;
#X obj 1991 794 delay 1;
#X obj 1991 768 t b l;
#X obj 1991 878 cycle~;
#X obj 1991 912 *~ 1;
#X obj 2172 821 zl reg;
#X obj 2172 742 zl group 2000;
#X obj 2172 714 t f b;
#X obj 2172 794 delay 1;
#X obj 2172 768 t b l;
#X obj 2172 878 cycle~;
#X obj 2172 912 *~ 1;
#X obj 2354 821 zl reg;
#X obj 2354 742 zl group 2000;
#X obj 2354 714 t f b;
#X obj 2354 794 delay 1;
#X obj 2354 768 t b l;
#X obj 2354 878 cycle~;
#X obj 2354 912 *~ 1;
#X obj 2536 820 zl reg;
#X obj 2536 741 zl group 2000;
#X obj 2536 713 t f b;
#X obj 2536 793 delay 1;
#X obj 2536 767 t b l;
#X obj 2536 877 cycle~;
#X obj 2536 911 *~ 1;
#X obj 2718 820 zl reg;
#X obj 2718 741 zl group 2000;
#X obj 2718 713 t f b;
#X obj 2718 793 delay 1;
#X obj 2718 767 t b l;
#X obj 2718 877 cycle~;
#X obj 2718 911 *~ 1;
#X obj 2900 820 zl reg;
#X obj 2900 741 zl group 2000;
#X obj 2900 713 t f b;
#X obj 2900 793 delay 1;
#X obj 2900 767 t b l;
#X obj 2900 877 cycle~;
#X obj 2900 911 *~ 1;
#X obj 166 743 zl group 5000;
#X msg 217 575 zlclear;
#X obj 348 743 zl group 5000;
#X obj 530 742 zl group 5000;
#X obj 166 849 zl median @zlmaxsize 5000;
#X obj 348 849 zl median @zlmaxsize 5000;
#X obj 530 848 zl median @zlmaxsize 5000;
#X obj 712 847 zl median @zlmaxsize 5000;
#X obj 896 847 zl median @zlmaxsize 5000;
#X obj 1078 847 zl median @zlmaxsize 5000;
#X obj 1262 847 zl median @zlmaxsize 5000;
#X obj 1445 848 zl median @zlmaxsize 5000;
#X obj 1627 848 zl median @zlmaxsize 5000;
#X obj 1809 848 zl median @zlmaxsize 5000;
#X obj 1991 848 zl median @zlmaxsize 5000;
#X obj 2172 848 zl median @zlmaxsize 5000;
#X obj 2354 848 zl median @zlmaxsize 5000;
#X obj 2536 847 zl median @zlmaxsize 5000;
#X obj 2718 847 zl median @zlmaxsize 5000;
#X obj 2900 847 zl median @zlmaxsize 5000;
#X obj 98 468 pak 0 0;
#X obj 98 493 prepend amp-range;
#X obj 280 439 scale 0 127 0 1;
#X obj 280 465 t f b;
#X msg 312 492 10;
#X obj 280 518 line;
#X obj 166 658 gate 2;
#X obj 348 656 gate 2;
#X obj 530 656 gate 2;
#X obj 712 658 gate 2;
#X obj 896 658 gate 2;
#X obj 1078 658 gate 2;
#X obj 1262 658 gate 2;
#X obj 1445 660 gate 2;
#X obj 1627 657 gate 2;
#X obj 1809 658 gate 2;
#X obj 1991 657 gate 2;
#X obj 2172 657 gate 2;
#X obj 2354 659 gate 2;
#X obj 2536 658 gate 2;
#X obj 2718 660 gate 2;
#X obj 2899 661 gate 2;
#X obj 498 346 gate;
#X obj 322 527 sel 0 1;
#X obj 380 528 scale 0 1 1 0;
#X obj 826 588 sel 1 2 3 4 5 6 7 8 9 10 11 12 13 14 15 16;
#X obj 1340 426 route 1 2 3 4 5 6 7 8 9 10 11 12 13 14 15 16;
#N canvas 0 25 594 803 swell 0;
#X obj 15 14 inlet;
#X obj 63 14 inlet;
#X obj 110 14 inlet;
#X obj 157 15 inlet;
#X obj 202 16 inlet;
#X obj 246 16 inlet;
#X obj 290 16 inlet;
#X obj 14 254 outlet;
#X obj 15 72 random 2000;
#X obj 15 97 + 3000;
#X msg 15 124 1 \$1;
#X msg 34 155 1 \$1 0.05 \$1;
#X obj 103 72 random;
#X obj 103 97 +;
#X obj 103 123 /;
#X obj 153 72 sel 0 1;
#X obj 215 99 gate;
#X obj 215 124 random 4500;
#X obj 215 148 + 200;
#X msg 215 171 1 \$1;
#X obj 132 124 random 4500;
#X obj 132 148 + 200;
#X msg 132 171 0 \$1;
#X connect 0 0 8 0;
#X connect 1 0 13 1;
#X connect 2 0 12 1;
#X connect 3 0 14 1;
#X connect 4 0 12 0;
#X connect 5 0 15 0;
#X connect 6 0 16 0;
#X connect 8 0 9 0;
#X connect 9 0 10 0;
#X connect 10 0 7 0;
#X connect 11 0 7 0;
#X connect 12 0 13 0;
#X connect 13 0 14 0;
#X connect 14 0 11 0;
#X connect 15 0 20 0;
#X connect 15 1 16 1;
#X connect 16 0 17 0;
#X connect 17 0 18 0;
#X connect 18 0 19 0;
#X connect 19 0 7 0;
#X connect 20 0 21 0;
#X connect 21 0 22 0;
#X connect 22 0 7 0;
#X restore 498 369 pd swell 1;
#X obj 576 346 gate;
#N canvas 0 25 594 803 swell 0;
#X obj 15 14 inlet;
#X obj 63 14 inlet;
#X obj 110 14 inlet;
#X obj 157 15 inlet;
#X obj 202 16 inlet;
#X obj 246 16 inlet;
#X obj 290 16 inlet;
#X obj 14 254 outlet;
#X obj 15 72 random 2000;
#X obj 15 97 + 3000;
#X msg 15 124 1 \$1;
#X msg 34 155 1 \$1 0.05 \$1;
#X obj 103 72 random;
#X obj 103 97 +;
#X obj 103 123 /;
#X obj 153 72 sel 0 1;
#X obj 215 99 gate;
#X obj 215 124 random 4500;
#X obj 215 148 + 200;
#X msg 215 171 1 \$1;
#X obj 132 124 random 4500;
#X obj 132 148 + 200;
#X msg 132 171 0 \$1;
#X connect 0 0 8 0;
#X connect 1 0 13 1;
#X connect 2 0 12 1;
#X connect 3 0 14 1;
#X connect 4 0 12 0;
#X connect 5 0 15 0;
#X connect 6 0 16 0;
#X connect 8 0 9 0;
#X connect 9 0 10 0;
#X connect 10 0 7 0;
#X connect 11 0 7 0;
#X connect 12 0 13 0;
#X connect 13 0 14 0;
#X connect 14 0 11 0;
#X connect 15 0 20 0;
#X connect 15 1 16 1;
#X connect 16 0 17 0;
#X connect 17 0 18 0;
#X connect 18 0 19 0;
#X connect 19 0 7 0;
#X connect 20 0 21 0;
#X connect 21 0 22 0;
#X connect 22 0 7 0;
#X restore 576 369 pd swell 1;
#X obj 655 345 gate;
#N canvas 0 25 594 803 swell 0;
#X obj 15 14 inlet;
#X obj 63 14 inlet;
#X obj 110 14 inlet;
#X obj 157 15 inlet;
#X obj 202 16 inlet;
#X obj 246 16 inlet;
#X obj 290 16 inlet;
#X obj 14 254 outlet;
#X obj 15 72 random 2000;
#X obj 15 97 + 3000;
#X msg 15 124 1 \$1;
#X msg 34 155 1 \$1 0.05 \$1;
#X obj 103 72 random;
#X obj 103 97 +;
#X obj 103 123 /;
#X obj 153 72 sel 0 1;
#X obj 215 99 gate;
#X obj 215 124 random 4500;
#X obj 215 148 + 200;
#X msg 215 171 1 \$1;
#X obj 132 124 random 4500;
#X obj 132 148 + 200;
#X msg 132 171 0 \$1;
#X connect 0 0 8 0;
#X connect 1 0 13 1;
#X connect 2 0 12 1;
#X connect 3 0 14 1;
#X connect 4 0 12 0;
#X connect 5 0 15 0;
#X connect 6 0 16 0;
#X connect 8 0 9 0;
#X connect 9 0 10 0;
#X connect 10 0 7 0;
#X connect 11 0 7 0;
#X connect 12 0 13 0;
#X connect 13 0 14 0;
#X connect 14 0 11 0;
#X connect 15 0 20 0;
#X connect 15 1 16 1;
#X connect 16 0 17 0;
#X connect 17 0 18 0;
#X connect 18 0 19 0;
#X connect 19 0 7 0;
#X connect 20 0 21 0;
#X connect 21 0 22 0;
#X connect 22 0 7 0;
#X restore 655 368 pd swell 1;
#X obj 734 345 gate;
#N canvas 0 25 594 803 swell 0;
#X obj 15 14 inlet;
#X obj 63 14 inlet;
#X obj 110 14 inlet;
#X obj 157 15 inlet;
#X obj 202 16 inlet;
#X obj 246 16 inlet;
#X obj 290 16 inlet;
#X obj 14 254 outlet;
#X obj 15 72 random 2000;
#X obj 15 97 + 3000;
#X msg 15 124 1 \$1;
#X msg 34 155 1 \$1 0.05 \$1;
#X obj 103 72 random;
#X obj 103 97 +;
#X obj 103 123 /;
#X obj 153 72 sel 0 1;
#X obj 215 99 gate;
#X obj 215 124 random 4500;
#X obj 215 148 + 200;
#X msg 215 171 1 \$1;
#X obj 132 124 random 4500;
#X obj 132 148 + 200;
#X msg 132 171 0 \$1;
#X connect 0 0 8 0;
#X connect 1 0 13 1;
#X connect 2 0 12 1;
#X connect 3 0 14 1;
#X connect 4 0 12 0;
#X connect 5 0 15 0;
#X connect 6 0 16 0;
#X connect 8 0 9 0;
#X connect 9 0 10 0;
#X connect 10 0 7 0;
#X connect 11 0 7 0;
#X connect 12 0 13 0;
#X connect 13 0 14 0;
#X connect 14 0 11 0;
#X connect 15 0 20 0;
#X connect 15 1 16 1;
#X connect 16 0 17 0;
#X connect 17 0 18 0;
#X connect 18 0 19 0;
#X connect 19 0 7 0;
#X connect 20 0 21 0;
#X connect 21 0 22 0;
#X connect 22 0 7 0;
#X restore 734 368 pd swell 1;
#X obj 497 396 gate;
#N canvas 0 25 594 803 swell 0;
#X obj 15 14 inlet;
#X obj 63 14 inlet;
#X obj 110 14 inlet;
#X obj 157 15 inlet;
#X obj 202 16 inlet;
#X obj 246 16 inlet;
#X obj 290 16 inlet;
#X obj 14 254 outlet;
#X obj 15 72 random 2000;
#X obj 15 97 + 3000;
#X msg 15 124 1 \$1;
#X msg 34 155 1 \$1 0.05 \$1;
#X obj 103 72 random;
#X obj 103 97 +;
#X obj 103 123 /;
#X obj 153 72 sel 0 1;
#X obj 215 99 gate;
#X obj 215 124 random 4500;
#X obj 215 148 + 200;
#X msg 215 171 1 \$1;
#X obj 132 124 random 4500;
#X obj 132 148 + 200;
#X msg 132 171 0 \$1;
#X connect 0 0 8 0;
#X connect 1 0 13 1;
#X connect 2 0 12 1;
#X connect 3 0 14 1;
#X connect 4 0 12 0;
#X connect 5 0 15 0;
#X connect 6 0 16 0;
#X connect 8 0 9 0;
#X connect 9 0 10 0;
#X connect 10 0 7 0;
#X connect 11 0 7 0;
#X connect 12 0 13 0;
#X connect 13 0 14 0;
#X connect 14 0 11 0;
#X connect 15 0 20 0;
#X connect 15 1 16 1;
#X connect 16 0 17 0;
#X connect 17 0 18 0;
#X connect 18 0 19 0;
#X connect 19 0 7 0;
#X connect 20 0 21 0;
#X connect 21 0 22 0;
#X connect 22 0 7 0;
#X restore 497 419 pd swell 1;
#X obj 576 396 gate;
#N canvas 0 25 594 803 swell 0;
#X obj 15 14 inlet;
#X obj 63 14 inlet;
#X obj 110 14 inlet;
#X obj 157 15 inlet;
#X obj 202 16 inlet;
#X obj 246 16 inlet;
#X obj 290 16 inlet;
#X obj 14 254 outlet;
#X obj 15 72 random 2000;
#X obj 15 97 + 3000;
#X msg 15 124 1 \$1;
#X msg 34 155 1 \$1 0.05 \$1;
#X obj 103 72 random;
#X obj 103 97 +;
#X obj 103 123 /;
#X obj 153 72 sel 0 1;
#X obj 215 99 gate;
#X obj 215 124 random 4500;
#X obj 215 148 + 200;
#X msg 215 171 1 \$1;
#X obj 132 124 random 4500;
#X obj 132 148 + 200;
#X msg 132 171 0 \$1;
#X connect 0 0 8 0;
#X connect 1 0 13 1;
#X connect 2 0 12 1;
#X connect 3 0 14 1;
#X connect 4 0 12 0;
#X connect 5 0 15 0;
#X connect 6 0 16 0;
#X connect 8 0 9 0;
#X connect 9 0 10 0;
#X connect 10 0 7 0;
#X connect 11 0 7 0;
#X connect 12 0 13 0;
#X connect 13 0 14 0;
#X connect 14 0 11 0;
#X connect 15 0 20 0;
#X connect 15 1 16 1;
#X connect 16 0 17 0;
#X connect 17 0 18 0;
#X connect 18 0 19 0;
#X connect 19 0 7 0;
#X connect 20 0 21 0;
#X connect 21 0 22 0;
#X connect 22 0 7 0;
#X restore 576 419 pd swell 1;
#X obj 653 396 gate;
#N canvas 0 25 594 803 swell 0;
#X obj 15 14 inlet;
#X obj 63 14 inlet;
#X obj 110 14 inlet;
#X obj 157 15 inlet;
#X obj 202 16 inlet;
#X obj 246 16 inlet;
#X obj 290 16 inlet;
#X obj 14 254 outlet;
#X obj 15 72 random 2000;
#X obj 15 97 + 3000;
#X msg 15 124 1 \$1;
#X msg 34 155 1 \$1 0.05 \$1;
#X obj 103 72 random;
#X obj 103 97 +;
#X obj 103 123 /;
#X obj 153 72 sel 0 1;
#X obj 215 99 gate;
#X obj 215 124 random 4500;
#X obj 215 148 + 200;
#X msg 215 171 1 \$1;
#X obj 132 124 random 4500;
#X obj 132 148 + 200;
#X msg 132 171 0 \$1;
#X connect 0 0 8 0;
#X connect 1 0 13 1;
#X connect 2 0 12 1;
#X connect 3 0 14 1;
#X connect 4 0 12 0;
#X connect 5 0 15 0;
#X connect 6 0 16 0;
#X connect 8 0 9 0;
#X connect 9 0 10 0;
#X connect 10 0 7 0;
#X connect 11 0 7 0;
#X connect 12 0 13 0;
#X connect 13 0 14 0;
#X connect 14 0 11 0;
#X connect 15 0 20 0;
#X connect 15 1 16 1;
#X connect 16 0 17 0;
#X connect 17 0 18 0;
#X connect 18 0 19 0;
#X connect 19 0 7 0;
#X connect 20 0 21 0;
#X connect 21 0 22 0;
#X connect 22 0 7 0;
#X restore 653 419 pd swell 1;
#X obj 733 394 gate;
#N canvas 0 25 594 803 swell 0;
#X obj 15 14 inlet;
#X obj 63 14 inlet;
#X obj 110 14 inlet;
#X obj 157 15 inlet;
#X obj 202 16 inlet;
#X obj 246 16 inlet;
#X obj 290 16 inlet;
#X obj 14 254 outlet;
#X obj 15 72 random 2000;
#X obj 15 97 + 3000;
#X msg 15 124 1 \$1;
#X msg 34 155 1 \$1 0.05 \$1;
#X obj 103 72 random;
#X obj 103 97 +;
#X obj 103 123 /;
#X obj 153 72 sel 0 1;
#X obj 215 99 gate;
#X obj 215 124 random 4500;
#X obj 215 148 + 200;
#X msg 215 171 1 \$1;
#X obj 132 124 random 4500;
#X obj 132 148 + 200;
#X msg 132 171 0 \$1;
#X connect 0 0 8 0;
#X connect 1 0 13 1;
#X connect 2 0 12 1;
#X connect 3 0 14 1;
#X connect 4 0 12 0;
#X connect 5 0 15 0;
#X connect 6 0 16 0;
#X connect 8 0 9 0;
#X connect 9 0 10 0;
#X connect 10 0 7 0;
#X connect 11 0 7 0;
#X connect 12 0 13 0;
#X connect 13 0 14 0;
#X connect 14 0 11 0;
#X connect 15 0 20 0;
#X connect 15 1 16 1;
#X connect 16 0 17 0;
#X connect 17 0 18 0;
#X connect 18 0 19 0;
#X connect 19 0 7 0;
#X connect 20 0 21 0;
#X connect 21 0 22 0;
#X connect 22 0 7 0;
#X restore 733 417 pd swell 1;
#X obj 499 446 gate;
#N canvas 0 25 594 803 swell 0;
#X obj 15 14 inlet;
#X obj 63 14 inlet;
#X obj 110 14 inlet;
#X obj 157 15 inlet;
#X obj 202 16 inlet;
#X obj 246 16 inlet;
#X obj 290 16 inlet;
#X obj 14 254 outlet;
#X obj 15 72 random 2000;
#X obj 15 97 + 3000;
#X msg 15 124 1 \$1;
#X msg 34 155 1 \$1 0.05 \$1;
#X obj 103 72 random;
#X obj 103 97 +;
#X obj 103 123 /;
#X obj 153 72 sel 0 1;
#X obj 215 99 gate;
#X obj 215 124 random 4500;
#X obj 215 148 + 200;
#X msg 215 171 1 \$1;
#X obj 132 124 random 4500;
#X obj 132 148 + 200;
#X msg 132 171 0 \$1;
#X connect 0 0 8 0;
#X connect 1 0 13 1;
#X connect 2 0 12 1;
#X connect 3 0 14 1;
#X connect 4 0 12 0;
#X connect 5 0 15 0;
#X connect 6 0 16 0;
#X connect 8 0 9 0;
#X connect 9 0 10 0;
#X connect 10 0 7 0;
#X connect 11 0 7 0;
#X connect 12 0 13 0;
#X connect 13 0 14 0;
#X connect 14 0 11 0;
#X connect 15 0 20 0;
#X connect 15 1 16 1;
#X connect 16 0 17 0;
#X connect 17 0 18 0;
#X connect 18 0 19 0;
#X connect 19 0 7 0;
#X connect 20 0 21 0;
#X connect 21 0 22 0;
#X connect 22 0 7 0;
#X restore 498 472 pd swell 1;
#X obj 575 448 gate;
#N canvas 0 25 594 803 swell 0;
#X obj 15 14 inlet;
#X obj 63 14 inlet;
#X obj 110 14 inlet;
#X obj 157 15 inlet;
#X obj 202 16 inlet;
#X obj 246 16 inlet;
#X obj 290 16 inlet;
#X obj 14 254 outlet;
#X obj 15 72 random 2000;
#X obj 15 97 + 3000;
#X msg 15 124 1 \$1;
#X msg 34 155 1 \$1 0.05 \$1;
#X obj 103 72 random;
#X obj 103 97 +;
#X obj 103 123 /;
#X obj 153 72 sel 0 1;
#X obj 215 99 gate;
#X obj 215 124 random 4500;
#X obj 215 148 + 200;
#X msg 215 171 1 \$1;
#X obj 132 124 random 4500;
#X obj 132 148 + 200;
#X msg 132 171 0 \$1;
#X connect 0 0 8 0;
#X connect 1 0 13 1;
#X connect 2 0 12 1;
#X connect 3 0 14 1;
#X connect 4 0 12 0;
#X connect 5 0 15 0;
#X connect 6 0 16 0;
#X connect 8 0 9 0;
#X connect 9 0 10 0;
#X connect 10 0 7 0;
#X connect 11 0 7 0;
#X connect 12 0 13 0;
#X connect 13 0 14 0;
#X connect 14 0 11 0;
#X connect 15 0 20 0;
#X connect 15 1 16 1;
#X connect 16 0 17 0;
#X connect 17 0 18 0;
#X connect 18 0 19 0;
#X connect 19 0 7 0;
#X connect 20 0 21 0;
#X connect 21 0 22 0;
#X connect 22 0 7 0;
#X restore 576 472 pd swell 1;
#X obj 654 448 gate;
#N canvas 0 25 594 803 swell 0;
#X obj 15 14 inlet;
#X obj 63 14 inlet;
#X obj 110 14 inlet;
#X obj 157 15 inlet;
#X obj 202 16 inlet;
#X obj 246 16 inlet;
#X obj 290 16 inlet;
#X obj 14 254 outlet;
#X obj 15 72 random 2000;
#X obj 15 97 + 3000;
#X msg 15 124 1 \$1;
#X msg 34 155 1 \$1 0.05 \$1;
#X obj 103 72 random;
#X obj 103 97 +;
#X obj 103 123 /;
#X obj 153 72 sel 0 1;
#X obj 215 99 gate;
#X obj 215 124 random 4500;
#X obj 215 148 + 200;
#X msg 215 171 1 \$1;
#X obj 132 124 random 4500;
#X obj 132 148 + 200;
#X msg 132 171 0 \$1;
#X connect 0 0 8 0;
#X connect 1 0 13 1;
#X connect 2 0 12 1;
#X connect 3 0 14 1;
#X connect 4 0 12 0;
#X connect 5 0 15 0;
#X connect 6 0 16 0;
#X connect 8 0 9 0;
#X connect 9 0 10 0;
#X connect 10 0 7 0;
#X connect 11 0 7 0;
#X connect 12 0 13 0;
#X connect 13 0 14 0;
#X connect 14 0 11 0;
#X connect 15 0 20 0;
#X connect 15 1 16 1;
#X connect 16 0 17 0;
#X connect 17 0 18 0;
#X connect 18 0 19 0;
#X connect 19 0 7 0;
#X connect 20 0 21 0;
#X connect 21 0 22 0;
#X connect 22 0 7 0;
#X restore 654 471 pd swell 1;
#X obj 733 446 gate;
#N canvas 0 25 594 803 swell 0;
#X obj 15 14 inlet;
#X obj 63 14 inlet;
#X obj 110 14 inlet;
#X obj 157 15 inlet;
#X obj 202 16 inlet;
#X obj 246 16 inlet;
#X obj 290 16 inlet;
#X obj 14 254 outlet;
#X obj 15 72 random 2000;
#X obj 15 97 + 3000;
#X msg 15 124 1 \$1;
#X msg 34 155 1 \$1 0.05 \$1;
#X obj 103 72 random;
#X obj 103 97 +;
#X obj 103 123 /;
#X obj 153 72 sel 0 1;
#X obj 215 99 gate;
#X obj 215 124 random 4500;
#X obj 215 148 + 200;
#X msg 215 171 1 \$1;
#X obj 132 124 random 4500;
#X obj 132 148 + 200;
#X msg 132 171 0 \$1;
#X connect 0 0 8 0;
#X connect 1 0 13 1;
#X connect 2 0 12 1;
#X connect 3 0 14 1;
#X connect 4 0 12 0;
#X connect 5 0 15 0;
#X connect 6 0 16 0;
#X connect 8 0 9 0;
#X connect 9 0 10 0;
#X connect 10 0 7 0;
#X connect 11 0 7 0;
#X connect 12 0 13 0;
#X connect 13 0 14 0;
#X connect 14 0 11 0;
#X connect 15 0 20 0;
#X connect 15 1 16 1;
#X connect 16 0 17 0;
#X connect 17 0 18 0;
#X connect 18 0 19 0;
#X connect 19 0 7 0;
#X connect 20 0 21 0;
#X connect 21 0 22 0;
#X connect 22 0 7 0;
#X restore 733 469 pd swell 1;
#X obj 498 495 gate;
#N canvas 0 25 594 803 swell 0;
#X obj 15 14 inlet;
#X obj 63 14 inlet;
#X obj 110 14 inlet;
#X obj 157 15 inlet;
#X obj 202 16 inlet;
#X obj 246 16 inlet;
#X obj 290 16 inlet;
#X obj 14 254 outlet;
#X obj 15 72 random 2000;
#X obj 15 97 + 3000;
#X msg 15 124 1 \$1;
#X msg 34 155 1 \$1 0.05 \$1;
#X obj 103 72 random;
#X obj 103 97 +;
#X obj 103 123 /;
#X obj 153 72 sel 0 1;
#X obj 215 99 gate;
#X obj 215 124 random 4500;
#X obj 215 148 + 200;
#X msg 215 171 1 \$1;
#X obj 132 124 random 4500;
#X obj 132 148 + 200;
#X msg 132 171 0 \$1;
#X connect 0 0 8 0;
#X connect 1 0 13 1;
#X connect 2 0 12 1;
#X connect 3 0 14 1;
#X connect 4 0 12 0;
#X connect 5 0 15 0;
#X connect 6 0 16 0;
#X connect 8 0 9 0;
#X connect 9 0 10 0;
#X connect 10 0 7 0;
#X connect 11 0 7 0;
#X connect 12 0 13 0;
#X connect 13 0 14 0;
#X connect 14 0 11 0;
#X connect 15 0 20 0;
#X connect 15 1 16 1;
#X connect 16 0 17 0;
#X connect 17 0 18 0;
#X connect 18 0 19 0;
#X connect 19 0 7 0;
#X connect 20 0 21 0;
#X connect 21 0 22 0;
#X connect 22 0 7 0;
#X restore 497 521 pd swell 1;
#X obj 574 497 gate;
#N canvas 0 25 594 803 swell 0;
#X obj 15 14 inlet;
#X obj 63 14 inlet;
#X obj 110 14 inlet;
#X obj 157 15 inlet;
#X obj 202 16 inlet;
#X obj 246 16 inlet;
#X obj 290 16 inlet;
#X obj 14 254 outlet;
#X obj 15 72 random 2000;
#X obj 15 97 + 3000;
#X msg 15 124 1 \$1;
#X msg 34 155 1 \$1 0.05 \$1;
#X obj 103 72 random;
#X obj 103 97 +;
#X obj 103 123 /;
#X obj 153 72 sel 0 1;
#X obj 215 99 gate;
#X obj 215 124 random 4500;
#X obj 215 148 + 200;
#X msg 215 171 1 \$1;
#X obj 132 124 random 4500;
#X obj 132 148 + 200;
#X msg 132 171 0 \$1;
#X connect 0 0 8 0;
#X connect 1 0 13 1;
#X connect 2 0 12 1;
#X connect 3 0 14 1;
#X connect 4 0 12 0;
#X connect 5 0 15 0;
#X connect 6 0 16 0;
#X connect 8 0 9 0;
#X connect 9 0 10 0;
#X connect 10 0 7 0;
#X connect 11 0 7 0;
#X connect 12 0 13 0;
#X connect 13 0 14 0;
#X connect 14 0 11 0;
#X connect 15 0 20 0;
#X connect 15 1 16 1;
#X connect 16 0 17 0;
#X connect 17 0 18 0;
#X connect 18 0 19 0;
#X connect 19 0 7 0;
#X connect 20 0 21 0;
#X connect 21 0 22 0;
#X connect 22 0 7 0;
#X restore 575 521 pd swell 1;
#X obj 653 497 gate;
#N canvas 0 25 594 803 swell 0;
#X obj 15 14 inlet;
#X obj 63 14 inlet;
#X obj 110 14 inlet;
#X obj 157 15 inlet;
#X obj 202 16 inlet;
#X obj 246 16 inlet;
#X obj 290 16 inlet;
#X obj 14 254 outlet;
#X obj 15 72 random 2000;
#X obj 15 97 + 3000;
#X msg 15 124 1 \$1;
#X msg 34 155 1 \$1 0.05 \$1;
#X obj 103 72 random;
#X obj 103 97 +;
#X obj 103 123 /;
#X obj 153 72 sel 0 1;
#X obj 215 99 gate;
#X obj 215 124 random 4500;
#X obj 215 148 + 200;
#X msg 215 171 1 \$1;
#X obj 132 124 random 4500;
#X obj 132 148 + 200;
#X msg 132 171 0 \$1;
#X connect 0 0 8 0;
#X connect 1 0 13 1;
#X connect 2 0 12 1;
#X connect 3 0 14 1;
#X connect 4 0 12 0;
#X connect 5 0 15 0;
#X connect 6 0 16 0;
#X connect 8 0 9 0;
#X connect 9 0 10 0;
#X connect 10 0 7 0;
#X connect 11 0 7 0;
#X connect 12 0 13 0;
#X connect 13 0 14 0;
#X connect 14 0 11 0;
#X connect 15 0 20 0;
#X connect 15 1 16 1;
#X connect 16 0 17 0;
#X connect 17 0 18 0;
#X connect 18 0 19 0;
#X connect 19 0 7 0;
#X connect 20 0 21 0;
#X connect 21 0 22 0;
#X connect 22 0 7 0;
#X restore 653 520 pd swell 1;
#X obj 732 495 gate;
#N canvas 0 25 594 803 swell 0;
#X obj 15 14 inlet;
#X obj 63 14 inlet;
#X obj 110 14 inlet;
#X obj 157 15 inlet;
#X obj 202 16 inlet;
#X obj 246 16 inlet;
#X obj 290 16 inlet;
#X obj 14 254 outlet;
#X obj 15 72 random 2000;
#X obj 15 97 + 3000;
#X msg 15 124 1 \$1;
#X msg 34 155 1 \$1 0.05 \$1;
#X obj 103 72 random;
#X obj 103 97 +;
#X obj 103 123 /;
#X obj 153 72 sel 0 1;
#X obj 215 99 gate;
#X obj 215 124 random 4500;
#X obj 215 148 + 200;
#X msg 215 171 1 \$1;
#X obj 132 124 random 4500;
#X obj 132 148 + 200;
#X msg 132 171 0 \$1;
#X connect 0 0 8 0;
#X connect 1 0 13 1;
#X connect 2 0 12 1;
#X connect 3 0 14 1;
#X connect 4 0 12 0;
#X connect 5 0 15 0;
#X connect 6 0 16 0;
#X connect 8 0 9 0;
#X connect 9 0 10 0;
#X connect 10 0 7 0;
#X connect 11 0 7 0;
#X connect 12 0 13 0;
#X connect 13 0 14 0;
#X connect 14 0 11 0;
#X connect 15 0 20 0;
#X connect 15 1 16 1;
#X connect 16 0 17 0;
#X connect 17 0 18 0;
#X connect 18 0 19 0;
#X connect 19 0 7 0;
#X connect 20 0 21 0;
#X connect 21 0 22 0;
#X connect 22 0 7 0;
#X restore 732 518 pd swell 1;
#N canvas 0 25 1440 402 metros 0;
#X obj 18 19 inlet;
#X obj 68 19 inlet;
#X obj 117 19 inlet;
#X obj 18 111 sel 1 2 3 4 5 6 7 8 9 10 11 12 13 14 15 16, f 176;
#X obj 18 242 zl change;
#X obj 56 52 sel 0;
#X obj 19 85 gate;
#X msg 56 77 0;
#X msg 18 143 1;
#X msg 49 143 0;
#X msg 93 143 1;
#X msg 124 143 0;
#X obj 94 241 zl change;
#X msg 170 142 1;
#X msg 201 142 0;
#X obj 171 240 zl change;
#X msg 245 141 1;
#X msg 276 141 0;
#X obj 246 239 zl change;
#X msg 323 141 1;
#X msg 354 141 0;
#X obj 324 239 zl change;
#X msg 399 140 1;
#X msg 430 140 0;
#X obj 400 238 zl change;
#X msg 474 140 1;
#X msg 505 140 0;
#X obj 475 238 zl change;
#X msg 554 141 1;
#X msg 585 141 0;
#X obj 555 239 zl change;
#X msg 631 142 1;
#X msg 662 142 0;
#X obj 632 240 zl change;
#X msg 706 142 1;
#X msg 737 142 0;
#X obj 707 240 zl change;
#X msg 785 142 1;
#X msg 816 142 0;
#X obj 786 240 zl change;
#X msg 862 142 1;
#X msg 893 142 0;
#X obj 863 240 zl change;
#X msg 935 142 1;
#X msg 966 142 0;
#X obj 936 240 zl change;
#X msg 1011 142 1;
#X msg 1043 142 0;
#X obj 1012 240 zl change;
#X msg 1091 141 1;
#X msg 1122 141 0;
#X obj 1092 239 zl change;
#X msg 1167 142 1;
#X obj 1168 240 zl change;
#X obj 18 270 metro;
#X obj 18 331 outlet;
#X obj 94 268 metro;
#X obj 171 268 metro;
#X obj 246 267 metro;
#X obj 324 267 metro;
#X obj 400 268 metro;
#X obj 475 267 metro;
#X obj 555 267 metro;
#X obj 632 268 metro;
#X obj 707 267 metro;
#X obj 786 267 metro;
#X obj 863 266 metro;
#X obj 936 266 metro;
#X obj 1012 266 metro;
#X obj 1092 264 metro;
#X obj 1168 266 metro;
#X connect 0 0 5 0;
#X connect 0 0 6 0;
#X connect 1 0 6 1;
#X connect 2 0 54 1;
#X connect 2 0 56 1;
#X connect 2 0 57 1;
#X connect 2 0 58 1;
#X connect 2 0 59 1;
#X connect 2 0 60 1;
#X connect 2 0 61 1;
#X connect 2 0 62 1;
#X connect 2 0 63 1;
#X connect 2 0 64 1;
#X connect 2 0 65 1;
#X connect 2 0 66 1;
#X connect 2 0 67 1;
#X connect 2 0 68 1;
#X connect 2 0 69 1;
#X connect 2 0 70 1;
#X connect 3 0 8 0;
#X connect 3 0 9 0;
#X connect 3 1 10 0;
#X connect 3 1 11 0;
#X connect 3 2 13 0;
#X connect 3 2 14 0;
#X connect 3 3 16 0;
#X connect 3 3 17 0;
#X connect 3 4 19 0;
#X connect 3 4 20 0;
#X connect 3 5 22 0;
#X connect 3 5 23 0;
#X connect 3 6 25 0;
#X connect 3 6 26 0;
#X connect 3 7 28 0;
#X connect 3 7 29 0;
#X connect 3 8 31 0;
#X connect 3 8 32 0;
#X connect 3 9 34 0;
#X connect 3 9 35 0;
#X connect 3 10 37 0;
#X connect 3 10 38 0;
#X connect 3 11 40 0;
#X connect 3 11 41 0;
#X connect 3 12 43 0;
#X connect 3 12 44 0;
#X connect 3 13 46 0;
#X connect 3 13 47 0;
#X connect 3 14 49 0;
#X connect 3 14 50 0;
#X connect 3 15 52 0;
#X connect 4 0 54 0;
#X connect 5 0 7 0;
#X connect 5 0 9 0;
#X connect 6 0 3 0;
#X connect 7 0 4 0;
#X connect 8 0 4 0;
#X connect 9 0 12 0;
#X connect 9 0 15 0;
#X connect 9 0 18 0;
#X connect 9 0 21 0;
#X connect 9 0 24 0;
#X connect 9 0 27 0;
#X connect 9 0 30 0;
#X connect 9 0 33 0;
#X connect 9 0 36 0;
#X connect 9 0 39 0;
#X connect 9 0 42 0;
#X connect 9 0 45 0;
#X connect 9 0 48 0;
#X connect 9 0 51 0;
#X connect 9 0 53 0;
#X connect 10 0 12 0;
#X connect 11 0 4 0;
#X connect 11 0 15 0;
#X connect 11 0 18 0;
#X connect 11 0 21 0;
#X connect 11 0 24 0;
#X connect 11 0 27 0;
#X connect 11 0 30 0;
#X connect 11 0 33 0;
#X connect 11 0 36 0;
#X connect 11 0 39 0;
#X connect 11 0 42 0;
#X connect 11 0 45 0;
#X connect 11 0 48 0;
#X connect 11 0 51 0;
#X connect 11 0 53 0;
#X connect 12 0 56 0;
#X connect 13 0 15 0;
#X connect 14 0 4 0;
#X connect 14 0 12 0;
#X connect 14 0 18 0;
#X connect 14 0 21 0;
#X connect 14 0 24 0;
#X connect 14 0 27 0;
#X connect 14 0 30 0;
#X connect 14 0 33 0;
#X connect 14 0 36 0;
#X connect 14 0 39 0;
#X connect 14 0 42 0;
#X connect 14 0 45 0;
#X connect 14 0 48 0;
#X connect 14 0 51 0;
#X connect 14 0 53 0;
#X connect 15 0 57 0;
#X connect 16 0 18 0;
#X connect 17 0 4 0;
#X connect 17 0 12 0;
#X connect 17 0 15 0;
#X connect 17 0 21 0;
#X connect 17 0 24 0;
#X connect 17 0 27 0;
#X connect 17 0 30 0;
#X connect 17 0 33 0;
#X connect 17 0 36 0;
#X connect 17 0 39 0;
#X connect 17 0 42 0;
#X connect 17 0 45 0;
#X connect 17 0 48 0;
#X connect 17 0 51 0;
#X connect 17 0 53 0;
#X connect 18 0 58 0;
#X connect 19 0 21 0;
#X connect 20 0 4 0;
#X connect 20 0 12 0;
#X connect 20 0 15 0;
#X connect 20 0 18 0;
#X connect 20 0 24 0;
#X connect 20 0 27 0;
#X connect 20 0 30 0;
#X connect 20 0 33 0;
#X connect 20 0 36 0;
#X connect 20 0 39 0;
#X connect 20 0 42 0;
#X connect 20 0 45 0;
#X connect 20 0 48 0;
#X connect 20 0 51 0;
#X connect 20 0 53 0;
#X connect 21 0 59 0;
#X connect 22 0 24 0;
#X connect 23 0 4 0;
#X connect 23 0 12 0;
#X connect 23 0 15 0;
#X connect 23 0 18 0;
#X connect 23 0 21 0;
#X connect 23 0 27 0;
#X connect 23 0 30 0;
#X connect 23 0 33 0;
#X connect 23 0 36 0;
#X connect 23 0 39 0;
#X connect 23 0 42 0;
#X connect 23 0 45 0;
#X connect 23 0 48 0;
#X connect 23 0 51 0;
#X connect 23 0 53 0;
#X connect 24 0 60 0;
#X connect 25 0 27 0;
#X connect 26 0 4 0;
#X connect 26 0 12 0;
#X connect 26 0 15 0;
#X connect 26 0 18 0;
#X connect 26 0 21 0;
#X connect 26 0 24 0;
#X connect 26 0 30 0;
#X connect 26 0 33 0;
#X connect 26 0 36 0;
#X connect 26 0 39 0;
#X connect 26 0 42 0;
#X connect 26 0 45 0;
#X connect 26 0 48 0;
#X connect 26 0 51 0;
#X connect 26 0 53 0;
#X connect 27 0 61 0;
#X connect 28 0 30 0;
#X connect 29 0 4 0;
#X connect 29 0 12 0;
#X connect 29 0 15 0;
#X connect 29 0 18 0;
#X connect 29 0 21 0;
#X connect 29 0 24 0;
#X connect 29 0 27 0;
#X connect 29 0 33 0;
#X connect 29 0 36 0;
#X connect 29 0 39 0;
#X connect 29 0 42 0;
#X connect 29 0 45 0;
#X connect 29 0 48 0;
#X connect 29 0 51 0;
#X connect 29 0 53 0;
#X connect 30 0 62 0;
#X connect 31 0 33 0;
#X connect 32 0 4 0;
#X connect 32 0 12 0;
#X connect 32 0 15 0;
#X connect 32 0 18 0;
#X connect 32 0 21 0;
#X connect 32 0 24 0;
#X connect 32 0 27 0;
#X connect 32 0 30 0;
#X connect 32 0 36 0;
#X connect 32 0 39 0;
#X connect 32 0 42 0;
#X connect 32 0 45 0;
#X connect 32 0 48 0;
#X connect 32 0 51 0;
#X connect 32 0 53 0;
#X connect 33 0 63 0;
#X connect 34 0 36 0;
#X connect 35 0 4 0;
#X connect 35 0 12 0;
#X connect 35 0 15 0;
#X connect 35 0 18 0;
#X connect 35 0 21 0;
#X connect 35 0 27 0;
#X connect 35 0 24 0;
#X connect 35 0 30 0;
#X connect 35 0 33 0;
#X connect 35 0 39 0;
#X connect 35 0 42 0;
#X connect 35 0 45 0;
#X connect 35 0 48 0;
#X connect 35 0 51 0;
#X connect 35 0 53 0;
#X connect 36 0 64 0;
#X connect 37 0 39 0;
#X connect 38 0 4 0;
#X connect 38 0 12 0;
#X connect 38 0 15 0;
#X connect 38 0 18 0;
#X connect 38 0 21 0;
#X connect 38 0 24 0;
#X connect 38 0 27 0;
#X connect 38 0 30 0;
#X connect 38 0 33 0;
#X connect 38 0 36 0;
#X connect 38 0 42 0;
#X connect 38 0 45 0;
#X connect 38 0 48 0;
#X connect 38 0 51 0;
#X connect 38 0 53 0;
#X connect 39 0 65 0;
#X connect 40 0 42 0;
#X connect 41 0 53 0;
#X connect 41 0 51 0;
#X connect 41 0 48 0;
#X connect 41 0 45 0;
#X connect 41 0 39 0;
#X connect 41 0 36 0;
#X connect 41 0 33 0;
#X connect 41 0 30 0;
#X connect 41 0 27 0;
#X connect 41 0 24 0;
#X connect 41 0 21 0;
#X connect 41 0 18 0;
#X connect 41 0 15 0;
#X connect 41 0 12 0;
#X connect 41 0 4 0;
#X connect 42 0 66 0;
#X connect 43 0 45 0;
#X connect 44 0 48 0;
#X connect 44 0 51 0;
#X connect 44 0 53 0;
#X connect 44 0 42 0;
#X connect 44 0 39 0;
#X connect 44 0 36 0;
#X connect 44 0 33 0;
#X connect 44 0 30 0;
#X connect 44 0 27 0;
#X connect 44 0 24 0;
#X connect 44 0 21 0;
#X connect 44 0 18 0;
#X connect 44 0 15 0;
#X connect 44 0 12 0;
#X connect 44 0 4 0;
#X connect 45 0 67 0;
#X connect 46 0 48 0;
#X connect 47 0 51 0;
#X connect 47 0 53 0;
#X connect 47 0 45 0;
#X connect 47 0 42 0;
#X connect 47 0 39 0;
#X connect 47 0 36 0;
#X connect 47 0 33 0;
#X connect 47 0 30 0;
#X connect 47 0 27 0;
#X connect 47 0 24 0;
#X connect 47 0 21 0;
#X connect 47 0 18 0;
#X connect 47 0 15 0;
#X connect 47 0 12 0;
#X connect 48 0 68 0;
#X connect 49 0 51 0;
#X connect 50 0 53 0;
#X connect 50 0 48 0;
#X connect 50 0 45 0;
#X connect 50 0 42 0;
#X connect 50 0 39 0;
#X connect 50 0 36 0;
#X connect 50 0 33 0;
#X connect 50 0 30 0;
#X connect 50 0 27 0;
#X connect 50 0 24 0;
#X connect 50 0 21 0;
#X connect 50 0 18 0;
#X connect 50 0 15 0;
#X connect 50 0 12 0;
#X connect 50 0 4 0;
#X connect 51 0 69 0;
#X connect 52 0 53 0;
#X connect 53 0 70 0;
#X connect 54 0 55 0;
#X connect 56 0 55 0;
#X connect 57 0 55 0;
#X connect 58 0 55 0;
#X connect 59 0 55 0;
#X connect 60 0 55 0;
#X connect 61 0 55 0;
#X connect 62 0 55 0;
#X connect 63 0 55 0;
#X connect 64 0 55 0;
#X connect 65 0 55 0;
#X connect 66 0 55 0;
#X connect 67 0 55 0;
#X connect 68 0 55 0;
#X connect 69 0 55 0;
#X connect 70 0 55 0;
#X restore 1015 281 pd metros;
#X obj 1091 282 random;
#X obj 1091 307 +;
#X obj 1015 318 + 1;
#X obj 1015 346 gate 3;
#X obj 1048 396 counter 1 16;
#X obj 1151 398 random 16;
#X obj 1151 424 + 1;
#X obj 1048 424 t i b;
#X obj 833 458 gate 16, f 32;
#X obj 1027 556 i;
#X obj 1055 556 i;
#X obj 1083 557 i;
#X obj 1110 557 i;
#X obj 1137 557 i;
#X obj 1165 558 i;
#X obj 1192 558 i;
#X obj 1219 558 i;
#X obj 1246 558 i;
#X obj 1273 558 i;
#X obj 1301 558 i;
#X obj 1328 558 i;
#X obj 1356 558 i;
#X obj 1383 558 i;
#X obj 1410 558 i;
#X obj 1437 558 i;
#X obj 1069 346 sel 2 3;
#X msg 1068 371 1;
#X msg 1100 371 0;
#X obj 1230 299 pak 0 0 0 0 0 0 0 0 0 0 0 0 0 0 0 0, f 130;
#X obj 1230 324 zl unique 0;
#X obj 1341 324 b;
#X obj 1230 348 zl len;
#X obj 1283 349 zl sort;
#X msg 1341 348 1 2 3 4 5 6 7 8 9 10 11 12 13 14 15 16;
#X obj 1340 375 zl lace;
#X obj 1340 401 zl iter 2;
#X obj 1230 524 route 1 2 3 4 5 6 7 8 9 10 11 12 13 14 15 16;
#X obj 1230 373 uzi, f 7;
#X obj 1230 396 counter;
#X msg 1288 395 0;
#X obj 1231 420 + 1;
#X obj 1231 447 zl group;
#X obj 1230 472 zl lace;
#X obj 1230 499 zl iter 2;
#X obj 1258 244 sel 0 1;
#X msg 1258 268 0;
#X msg 1290 268 2;
#X obj 1323 244 sel 0 1;
#X msg 1323 268 0;
#X msg 1355 268 3;
#X obj 1387 244 sel 0 1;
#X msg 1387 268 0;
#X msg 1419 268 4;
#X obj 1449 244 sel 0 1;
#X msg 1449 268 0;
#X msg 1481 268 5;
#X obj 1512 243 sel 0 1;
#X msg 1512 267 0;
#X msg 1544 267 6;
#X obj 1574 243 sel 0 1;
#X msg 1574 267 0;
#X msg 1606 267 7;
#X obj 1636 243 sel 0 1;
#X msg 1636 267 0;
#X msg 1668 267 8;
#X obj 1700 242 sel 0 1;
#X msg 1700 266 0;
#X msg 1732 266 9;
#X obj 1763 243 sel 0 1;
#X msg 1763 267 0;
#X msg 1795 267 10;
#X obj 1826 242 sel 0 1;
#X msg 1826 266 0;
#X msg 1858 266 11;
#X obj 1889 242 sel 0 1;
#X msg 1889 266 0;
#X msg 1921 266 12;
#X obj 1952 242 sel 0 1;
#X msg 1952 266 0;
#X msg 1984 266 13;
#X obj 2017 240 sel 0 1;
#X msg 2016 266 0;
#X msg 2048 266 14;
#X obj 2080 240 sel 0 1;
#X msg 2079 266 0;
#X msg 2111 266 15;
#X obj 2143 239 sel 0 1;
#X msg 2142 265 0;
#X msg 2174 265 16;
#X obj 258 885 line~;
#X obj 440 885 line~;
#X obj 622 884 line~;
#X obj 804 883 line~;
#X obj 988 883 line~;
#X obj 1170 883 line~;
#X obj 1354 883 line~;
#X obj 1537 884 line~;
#X obj 1719 884 line~;
#X obj 1901 884 line~;
#X obj 2083 884 line~;
#X obj 2264 884 line~;
#X obj 2446 884 line~;
#X obj 2628 883 line~;
#X obj 2810 883 line~;
#X obj 2978 878 line~;
#X obj 166 688 unpack;
#X obj 348 688 unpack;
#X obj 530 687 unpack;
#X obj 712 686 unpack;
#X obj 896 686 unpack;
#X obj 1078 686 unpack;
#X obj 1262 686 unpack;
#X obj 1445 687 unpack;
#X obj 1627 687 unpack;
#X obj 1809 687 unpack;
#X obj 1991 687 unpack;
#X obj 2172 687 unpack;
#X obj 2354 687 unpack;
#X obj 2536 686 unpack;
#X obj 2718 686 unpack;
#X obj 2900 686 unpack;
#X obj 30 599 fiddle~ 1024 1 100 16;
#X obj 27 208 route POT0 POT1 POT2 POT3 POT4 POT5 TOGGLE0 TOGGLE1 TOGGLE2 TOGGLE3 TOGGLE4 TOGGLE5 TOGGLE6 TOGGLE7 TOGGLE8 TOGGLE9 TOGGLE10 TOGGLE11 TOGGLE12 TOGGLE13 TOGGLE14 TOGGLE15 TOGGLE16 TOGGLE17 TOGGLE18 TOGGLE19 BUTTON0 BUTTON1 BUTTON2 BUTTON3, f 243;
#X obj 26 34 loadbang;
#X obj 26 146 print parse-output;
#X msg 26 61 listen 5009 127.0.0.1;
#X obj 26 90 netreceive -u -f -b 5009;
#X obj 26 117 oscparse;
#X obj 63 178 list trim;
#X connect 0 0 189 1;
#X connect 0 1 190 1;
#X connect 0 2 191 1;
#X connect 0 3 192 1;
#X connect 0 4 193 1;
#X connect 0 5 194 1;
#X connect 0 6 195 1;
#X connect 0 7 196 1;
#X connect 0 8 197 1;
#X connect 0 9 198 1;
#X connect 0 10 199 1;
#X connect 0 11 200 1;
#X connect 0 12 201 1;
#X connect 0 13 202 1;
#X connect 0 14 203 1;
#X connect 0 15 204 1;
#X connect 1 0 27 0;
#X connect 2 0 34 0;
#X connect 2 0 183 0;
#X connect 3 0 35 0;
#X connect 4 0 164 0;
#X connect 5 0 185 0;
#X connect 6 0 206 0;
#X connect 6 0 207 0;
#X connect 7 0 210 2;
#X connect 7 0 212 2;
#X connect 7 0 214 2;
#X connect 7 0 216 2;
#X connect 7 0 218 2;
#X connect 7 0 220 2;
#X connect 7 0 222 2;
#X connect 7 0 224 2;
#X connect 7 0 226 2;
#X connect 7 0 228 2;
#X connect 7 0 230 2;
#X connect 7 0 232 2;
#X connect 7 0 234 2;
#X connect 7 0 236 2;
#X connect 7 0 238 2;
#X connect 7 0 240 2;
#X connect 7 0 242 1;
#X connect 8 0 210 1;
#X connect 8 0 212 1;
#X connect 8 0 214 1;
#X connect 8 0 216 1;
#X connect 8 0 218 1;
#X connect 8 0 220 1;
#X connect 8 0 222 1;
#X connect 8 0 224 1;
#X connect 8 0 226 1;
#X connect 8 0 228 1;
#X connect 8 0 230 1;
#X connect 8 0 232 1;
#X connect 8 0 234 1;
#X connect 8 0 236 1;
#X connect 8 0 238 1;
#X connect 8 0 240 1;
#X connect 8 0 243 1;
#X connect 9 0 210 3;
#X connect 9 0 212 3;
#X connect 9 0 214 3;
#X connect 9 0 216 3;
#X connect 9 0 218 3;
#X connect 9 0 220 3;
#X connect 9 0 222 3;
#X connect 9 0 224 3;
#X connect 9 0 226 3;
#X connect 9 0 228 3;
#X connect 9 0 230 3;
#X connect 9 0 232 3;
#X connect 9 0 234 3;
#X connect 9 0 236 3;
#X connect 9 0 238 3;
#X connect 9 0 240 3;
#X connect 10 0 241 0;
#X connect 10 0 244 0;
#X connect 11 0 205 0;
#X connect 11 0 210 5;
#X connect 11 0 270 0;
#X connect 12 0 211 0;
#X connect 12 0 212 5;
#X connect 12 0 286 0;
#X connect 13 0 213 0;
#X connect 13 0 214 5;
#X connect 13 0 289 0;
#X connect 14 0 215 0;
#X connect 14 0 216 5;
#X connect 14 0 292 0;
#X connect 15 0 217 0;
#X connect 15 0 218 5;
#X connect 15 0 295 0;
#X connect 16 0 219 0;
#X connect 16 0 220 5;
#X connect 16 0 298 0;
#X connect 17 0 221 0;
#X connect 17 0 222 5;
#X connect 17 0 301 0;
#X connect 18 0 223 0;
#X connect 18 0 224 5;
#X connect 18 0 304 0;
#X connect 19 0 225 0;
#X connect 19 0 226 5;
#X connect 19 0 307 0;
#X connect 20 0 227 0;
#X connect 20 0 228 5;
#X connect 20 0 310 0;
#X connect 21 0 229 0;
#X connect 21 0 230 5;
#X connect 21 0 313 0;
#X connect 22 0 231 0;
#X connect 22 0 232 5;
#X connect 22 0 316 0;
#X connect 23 0 233 0;
#X connect 23 0 234 5;
#X connect 23 0 319 0;
#X connect 24 0 235 0;
#X connect 24 0 236 5;
#X connect 24 0 322 0;
#X connect 25 0 237 0;
#X connect 25 0 238 5;
#X connect 25 0 325 0;
#X connect 26 0 239 0;
#X connect 26 0 240 5;
#X connect 26 0 328 0;
#X connect 27 0 32 0;
#X connect 27 1 33 0;
#X connect 28 0 31 0;
#X connect 28 1 31 0;
#X connect 29 0 30 0;
#X connect 29 0 39 0;
#X connect 30 0 363 0;
#X connect 31 0 363 0;
#X connect 32 0 31 1;
#X connect 33 0 31 1;
#X connect 34 0 183 1;
#X connect 35 0 36 0;
#X connect 35 1 37 0;
#X connect 36 0 38 0;
#X connect 37 0 38 0;
#X connect 38 0 189 0;
#X connect 38 0 190 0;
#X connect 38 0 191 0;
#X connect 38 0 192 0;
#X connect 38 0 193 0;
#X connect 38 0 194 0;
#X connect 38 0 195 0;
#X connect 38 0 196 0;
#X connect 38 0 197 0;
#X connect 38 0 198 0;
#X connect 38 0 199 0;
#X connect 38 0 200 0;
#X connect 38 0 201 0;
#X connect 38 0 202 0;
#X connect 38 0 203 0;
#X connect 38 0 204 0;
#X connect 39 0 189 0;
#X connect 39 0 190 0;
#X connect 39 0 191 0;
#X connect 39 0 192 0;
#X connect 39 0 193 0;
#X connect 39 0 194 0;
#X connect 39 0 195 0;
#X connect 39 0 196 0;
#X connect 39 0 197 0;
#X connect 39 0 198 0;
#X connect 39 0 199 0;
#X connect 39 0 200 0;
#X connect 39 0 201 0;
#X connect 39 0 202 0;
#X connect 39 0 203 0;
#X connect 39 0 204 0;
#X connect 51 0 167 0;
#X connect 52 0 163 0;
#X connect 52 1 163 0;
#X connect 53 0 51 0;
#X connect 54 0 53 0;
#X connect 54 1 51 1;
#X connect 55 0 56 0;
#X connect 56 0 57 0;
#X connect 57 0 58 0;
#X connect 58 0 59 0;
#X connect 58 0 59 1;
#X connect 60 0 168 0;
#X connect 61 0 165 0;
#X connect 61 1 165 0;
#X connect 62 0 60 0;
#X connect 63 0 62 0;
#X connect 63 1 60 1;
#X connect 64 0 65 0;
#X connect 65 0 57 0;
#X connect 66 0 169 0;
#X connect 67 0 166 0;
#X connect 67 1 166 0;
#X connect 68 0 66 0;
#X connect 69 0 68 0;
#X connect 69 1 66 1;
#X connect 70 0 71 0;
#X connect 71 0 57 0;
#X connect 72 0 170 0;
#X connect 73 0 76 0;
#X connect 74 0 73 0;
#X connect 74 1 73 0;
#X connect 75 0 72 0;
#X connect 76 0 75 0;
#X connect 76 1 72 1;
#X connect 77 0 78 0;
#X connect 78 0 57 0;
#X connect 79 0 171 0;
#X connect 80 0 83 0;
#X connect 81 0 80 0;
#X connect 81 1 80 0;
#X connect 82 0 79 0;
#X connect 83 0 82 0;
#X connect 83 1 79 1;
#X connect 84 0 85 0;
#X connect 85 0 57 0;
#X connect 86 0 172 0;
#X connect 87 0 90 0;
#X connect 88 0 87 0;
#X connect 88 1 87 0;
#X connect 89 0 86 0;
#X connect 90 0 89 0;
#X connect 90 1 86 1;
#X connect 91 0 92 0;
#X connect 92 0 57 0;
#X connect 93 0 173 0;
#X connect 94 0 97 0;
#X connect 95 0 94 0;
#X connect 95 1 94 0;
#X connect 96 0 93 0;
#X connect 97 0 96 0;
#X connect 97 1 93 1;
#X connect 98 0 99 0;
#X connect 99 0 57 0;
#X connect 100 0 174 0;
#X connect 101 0 104 0;
#X connect 102 0 101 0;
#X connect 102 1 101 0;
#X connect 103 0 100 0;
#X connect 104 0 103 0;
#X connect 104 1 100 1;
#X connect 105 0 106 0;
#X connect 106 0 57 0;
#X connect 107 0 175 0;
#X connect 108 0 111 0;
#X connect 109 0 108 0;
#X connect 109 1 108 0;
#X connect 110 0 107 0;
#X connect 111 0 110 0;
#X connect 111 1 107 1;
#X connect 112 0 113 0;
#X connect 113 0 57 0;
#X connect 114 0 176 0;
#X connect 115 0 118 0;
#X connect 116 0 115 0;
#X connect 116 1 115 0;
#X connect 117 0 114 0;
#X connect 118 0 117 0;
#X connect 118 1 114 1;
#X connect 119 0 120 0;
#X connect 120 0 57 0;
#X connect 121 0 177 0;
#X connect 122 0 125 0;
#X connect 123 0 122 0;
#X connect 123 1 122 0;
#X connect 124 0 121 0;
#X connect 125 0 124 0;
#X connect 125 1 121 1;
#X connect 126 0 127 0;
#X connect 127 0 57 0;
#X connect 128 0 178 0;
#X connect 129 0 132 0;
#X connect 130 0 129 0;
#X connect 130 1 129 0;
#X connect 131 0 128 0;
#X connect 132 0 131 0;
#X connect 132 1 128 1;
#X connect 133 0 134 0;
#X connect 134 0 57 0;
#X connect 135 0 179 0;
#X connect 136 0 139 0;
#X connect 137 0 136 0;
#X connect 137 1 136 0;
#X connect 138 0 135 0;
#X connect 139 0 138 0;
#X connect 139 1 135 1;
#X connect 140 0 141 0;
#X connect 141 0 57 0;
#X connect 142 0 180 0;
#X connect 143 0 146 0;
#X connect 144 0 143 0;
#X connect 144 1 143 0;
#X connect 145 0 142 0;
#X connect 146 0 145 0;
#X connect 146 1 142 1;
#X connect 147 0 148 0;
#X connect 148 0 57 0;
#X connect 149 0 181 0;
#X connect 150 0 153 0;
#X connect 151 0 150 0;
#X connect 151 1 150 0;
#X connect 152 0 149 0;
#X connect 153 0 152 0;
#X connect 153 1 149 1;
#X connect 154 0 155 0;
#X connect 155 0 57 0;
#X connect 156 0 182 0;
#X connect 157 0 160 0;
#X connect 158 0 157 0;
#X connect 158 1 157 0;
#X connect 159 0 156 0;
#X connect 160 0 159 0;
#X connect 160 1 156 1;
#X connect 161 0 162 0;
#X connect 162 0 57 0;
#X connect 163 0 54 0;
#X connect 164 0 163 0;
#X connect 164 0 167 0;
#X connect 164 0 165 0;
#X connect 164 0 166 0;
#X connect 164 0 168 0;
#X connect 164 0 169 0;
#X connect 164 0 73 0;
#X connect 164 0 170 0;
#X connect 164 0 80 0;
#X connect 164 0 171 0;
#X connect 164 0 87 0;
#X connect 164 0 172 0;
#X connect 164 0 94 0;
#X connect 164 0 173 0;
#X connect 164 0 101 0;
#X connect 164 0 174 0;
#X connect 164 0 108 0;
#X connect 164 0 175 0;
#X connect 164 0 115 0;
#X connect 164 0 176 0;
#X connect 164 0 122 0;
#X connect 164 0 177 0;
#X connect 164 0 129 0;
#X connect 164 0 178 0;
#X connect 164 0 136 0;
#X connect 164 0 179 0;
#X connect 164 0 143 0;
#X connect 164 0 180 0;
#X connect 164 0 150 0;
#X connect 164 0 181 0;
#X connect 164 0 157 0;
#X connect 164 0 182 0;
#X connect 165 0 63 0;
#X connect 166 0 69 0;
#X connect 167 0 55 0;
#X connect 168 0 64 0;
#X connect 169 0 70 0;
#X connect 170 0 77 0;
#X connect 171 0 84 0;
#X connect 172 0 91 0;
#X connect 173 0 98 0;
#X connect 174 0 105 0;
#X connect 175 0 112 0;
#X connect 176 0 119 0;
#X connect 177 0 126 0;
#X connect 178 0 133 0;
#X connect 179 0 140 0;
#X connect 180 0 147 0;
#X connect 181 0 154 0;
#X connect 182 0 161 0;
#X connect 183 0 184 0;
#X connect 184 0 363 0;
#X connect 185 0 186 0;
#X connect 186 0 188 0;
#X connect 186 1 187 0;
#X connect 187 0 188 1;
#X connect 188 0 58 1;
#X connect 189 0 347 0;
#X connect 189 1 55 0;
#X connect 190 0 348 0;
#X connect 190 1 64 0;
#X connect 191 0 349 0;
#X connect 191 1 70 0;
#X connect 192 0 350 0;
#X connect 192 1 77 0;
#X connect 193 0 351 0;
#X connect 193 1 84 0;
#X connect 194 0 352 0;
#X connect 194 1 91 0;
#X connect 195 0 353 0;
#X connect 195 1 98 0;
#X connect 196 0 354 0;
#X connect 196 1 105 0;
#X connect 197 0 355 0;
#X connect 197 1 112 0;
#X connect 198 0 356 0;
#X connect 198 1 119 0;
#X connect 199 0 357 0;
#X connect 199 1 126 0;
#X connect 200 0 358 0;
#X connect 200 1 133 0;
#X connect 201 0 359 0;
#X connect 201 1 140 0;
#X connect 202 0 360 0;
#X connect 202 1 147 0;
#X connect 203 0 361 0;
#X connect 203 1 154 0;
#X connect 204 0 362 0;
#X connect 204 1 161 0;
#X connect 205 0 210 0;
#X connect 206 0 205 1;
#X connect 206 0 211 1;
#X connect 206 0 213 1;
#X connect 206 0 215 1;
#X connect 206 0 217 1;
#X connect 206 0 219 1;
#X connect 206 0 221 1;
#X connect 206 0 223 1;
#X connect 206 0 225 1;
#X connect 206 0 227 1;
#X connect 206 0 229 1;
#X connect 206 0 231 1;
#X connect 206 0 233 1;
#X connect 206 0 235 1;
#X connect 206 0 237 1;
#X connect 206 0 239 1;
#X connect 206 1 273 0;
#X connect 207 0 210 6;
#X connect 207 0 212 6;
#X connect 207 0 214 6;
#X connect 207 0 216 6;
#X connect 207 0 218 6;
#X connect 207 0 220 6;
#X connect 207 0 222 6;
#X connect 207 0 224 6;
#X connect 207 0 226 6;
#X connect 207 0 228 6;
#X connect 207 0 230 6;
#X connect 207 0 232 6;
#X connect 207 0 234 6;
#X connect 207 0 236 6;
#X connect 207 0 238 6;
#X connect 207 0 240 6;
#X connect 208 0 210 4;
#X connect 208 1 212 4;
#X connect 208 2 214 4;
#X connect 208 3 216 4;
#X connect 208 4 218 4;
#X connect 208 5 220 4;
#X connect 208 6 222 4;
#X connect 208 7 224 4;
#X connect 208 8 226 4;
#X connect 208 9 228 4;
#X connect 208 10 230 4;
#X connect 208 11 232 4;
#X connect 208 12 234 4;
#X connect 208 13 236 4;
#X connect 208 14 238 4;
#X connect 208 15 240 4;
#X connect 209 0 210 5;
#X connect 209 1 212 5;
#X connect 209 2 214 5;
#X connect 209 3 216 5;
#X connect 209 4 218 5;
#X connect 209 5 220 5;
#X connect 209 6 222 5;
#X connect 209 7 224 5;
#X connect 209 8 226 5;
#X connect 209 9 228 5;
#X connect 209 10 230 5;
#X connect 209 11 232 5;
#X connect 209 12 234 5;
#X connect 209 13 236 5;
#X connect 209 14 238 5;
#X connect 209 15 240 5;
#X connect 210 0 331 0;
#X connect 211 0 212 0;
#X connect 212 0 332 0;
#X connect 213 0 214 0;
#X connect 214 0 333 0;
#X connect 215 0 216 0;
#X connect 216 0 334 0;
#X connect 217 0 218 0;
#X connect 218 0 335 0;
#X connect 219 0 220 0;
#X connect 220 0 336 0;
#X connect 221 0 222 0;
#X connect 222 0 337 0;
#X connect 223 0 224 0;
#X connect 224 0 338 0;
#X connect 225 0 226 0;
#X connect 226 0 339 0;
#X connect 227 0 228 0;
#X connect 228 0 340 0;
#X connect 229 0 230 0;
#X connect 230 0 341 0;
#X connect 231 0 232 0;
#X connect 232 0 342 0;
#X connect 233 0 234 0;
#X connect 234 0 343 0;
#X connect 235 0 236 0;
#X connect 236 0 344 0;
#X connect 237 0 238 0;
#X connect 238 0 345 0;
#X connect 239 0 240 0;
#X connect 240 0 346 0;
#X connect 241 0 242 0;
#X connect 241 0 245 1;
#X connect 242 0 243 0;
#X connect 243 0 241 2;
#X connect 244 0 245 0;
#X connect 244 0 267 0;
#X connect 245 0 247 0;
#X connect 245 1 246 0;
#X connect 245 2 246 0;
#X connect 246 0 249 0;
#X connect 247 0 248 0;
#X connect 249 0 250 0;
#X connect 249 1 250 1;
#X connect 250 0 251 0;
#X connect 250 1 252 0;
#X connect 250 2 253 0;
#X connect 250 3 254 0;
#X connect 250 4 255 0;
#X connect 250 5 256 0;
#X connect 250 6 257 0;
#X connect 250 7 258 0;
#X connect 250 8 259 0;
#X connect 250 9 260 0;
#X connect 250 10 261 0;
#X connect 250 11 262 0;
#X connect 250 12 263 1;
#X connect 250 13 264 0;
#X connect 250 14 265 0;
#X connect 250 15 266 0;
#X connect 251 0 208 0;
#X connect 252 0 208 0;
#X connect 253 0 208 0;
#X connect 254 0 208 0;
#X connect 255 0 208 0;
#X connect 256 0 208 0;
#X connect 257 0 208 0;
#X connect 258 0 208 0;
#X connect 259 0 208 0;
#X connect 260 0 208 0;
#X connect 261 0 208 0;
#X connect 262 0 208 0;
#X connect 263 0 208 0;
#X connect 264 0 208 0;
#X connect 265 0 208 0;
#X connect 266 0 208 0;
#X connect 267 0 268 0;
#X connect 267 1 269 0;
#X connect 268 0 246 1;
#X connect 269 0 246 1;
#X connect 270 0 271 0;
#X connect 270 0 272 0;
#X connect 270 0 276 1;
#X connect 271 0 273 0;
#X connect 271 0 274 0;
#X connect 272 0 275 0;
#X connect 273 0 279 0;
#X connect 273 0 246 4;
#X connect 273 0 241 1;
#X connect 273 0 247 1;
#X connect 273 0 280 4;
#X connect 273 0 283 1;
#X connect 274 0 284 1;
#X connect 275 0 276 0;
#X connect 276 0 277 0;
#X connect 277 0 209 0;
#X connect 278 0 251 1;
#X connect 278 1 252 1;
#X connect 278 2 253 1;
#X connect 278 3 254 1;
#X connect 278 4 255 1;
#X connect 278 5 256 1;
#X connect 278 6 257 1;
#X connect 278 7 258 1;
#X connect 278 8 259 1;
#X connect 278 9 260 1;
#X connect 278 10 261 1;
#X connect 278 11 262 1;
#X connect 278 12 263 1;
#X connect 278 13 264 1;
#X connect 278 14 265 1;
#X connect 278 15 266 1;
#X connect 279 0 280 0;
#X connect 279 1 281 0;
#X connect 280 0 282 0;
#X connect 281 0 280 2;
#X connect 282 0 283 0;
#X connect 283 0 284 0;
#X connect 284 0 285 0;
#X connect 285 0 278 0;
#X connect 286 0 287 0;
#X connect 286 1 288 0;
#X connect 287 0 270 1;
#X connect 288 0 270 1;
#X connect 289 0 290 0;
#X connect 289 1 291 0;
#X connect 290 0 270 2;
#X connect 291 0 270 2;
#X connect 292 0 293 0;
#X connect 292 1 294 0;
#X connect 293 0 270 3;
#X connect 294 0 270 3;
#X connect 295 0 296 0;
#X connect 295 1 297 0;
#X connect 296 0 270 4;
#X connect 297 0 270 4;
#X connect 298 0 299 0;
#X connect 298 1 300 0;
#X connect 299 0 270 5;
#X connect 300 0 270 5;
#X connect 301 0 302 0;
#X connect 301 1 303 0;
#X connect 302 0 270 6;
#X connect 303 0 270 6;
#X connect 304 0 305 0;
#X connect 304 1 306 0;
#X connect 305 0 270 7;
#X connect 306 0 270 7;
#X connect 307 0 308 0;
#X connect 307 1 309 0;
#X connect 308 0 270 8;
#X connect 309 0 270 8;
#X connect 310 0 311 0;
#X connect 310 1 312 0;
#X connect 311 0 270 9;
#X connect 312 0 270 9;
#X connect 313 0 314 0;
#X connect 313 1 315 0;
#X connect 314 0 270 10;
#X connect 315 0 270 10;
#X connect 316 0 317 0;
#X connect 316 1 318 0;
#X connect 317 0 270 11;
#X connect 318 0 270 11;
#X connect 319 0 320 0;
#X connect 319 1 321 0;
#X connect 320 0 270 12;
#X connect 321 0 270 12;
#X connect 322 0 323 0;
#X connect 322 1 324 0;
#X connect 323 0 270 13;
#X connect 324 0 270 13;
#X connect 325 0 326 0;
#X connect 325 1 327 0;
#X connect 326 0 270 14;
#X connect 327 0 270 14;
#X connect 328 0 329 0;
#X connect 328 1 330 0;
#X connect 329 0 270 15;
#X connect 330 0 270 15;
#X connect 331 0 56 1;
#X connect 332 0 65 1;
#X connect 333 0 71 1;
#X connect 334 0 78 1;
#X connect 335 0 85 1;
#X connect 336 0 92 1;
#X connect 337 0 99 1;
#X connect 338 0 106 1;
#X connect 339 0 113 1;
#X connect 340 0 120 1;
#X connect 341 0 127 1;
#X connect 342 0 134 1;
#X connect 343 0 141 1;
#X connect 344 0 148 1;
#X connect 345 0 155 1;
#X connect 346 0 162 1;
#X connect 347 0 52 0;
#X connect 348 0 61 0;
#X connect 349 0 67 0;
#X connect 350 0 74 0;
#X connect 351 0 81 0;
#X connect 352 0 88 0;
#X connect 353 0 95 0;
#X connect 354 0 102 0;
#X connect 355 0 109 0;
#X connect 356 0 116 0;
#X connect 357 0 123 0;
#X connect 358 0 130 0;
#X connect 359 0 137 0;
#X connect 360 0 144 0;
#X connect 361 0 151 0;
#X connect 362 0 158 0;
#X connect 363 4 0 0;
#X connect 364 0 2 0;
#X connect 364 1 5 0;
#X connect 364 2 7 0;
#X connect 364 3 8 0;
#X connect 364 4 9 0;
#X connect 364 6 1 0;
#X connect 364 7 3 0;
#X connect 364 8 6 0;
#X connect 364 9 10 0;
#X connect 364 10 11 0;
#X connect 364 11 12 0;
#X connect 364 12 13 0;
#X connect 364 13 14 0;
#X connect 364 14 15 0;
#X connect 364 15 16 0;
#X connect 364 16 17 0;
#X connect 364 17 18 0;
#X connect 364 18 19 0;
#X connect 364 19 20 0;
#X connect 364 20 21 0;
#X connect 364 21 22 0;
#X connect 364 22 23 0;
#X connect 364 23 24 0;
#X connect 364 24 25 0;
#X connect 364 25 26 0;
#X connect 364 26 4 0;
#X connect 365 0 367 0;
#X connect 367 0 368 0;
#X connect 368 0 369 0;
#X connect 369 0 366 0;
#X connect 369 0 370 0;
#X connect 370 0 364 0;
